<?xml version="1.0" encoding="utf-8"?>
<!-- Generator: Adobe Illustrator 16.0.0, SVG Export Plug-In . SVG Version: 6.00 Build 0)  -->
<!DOCTYPE svg PUBLIC "-//W3C//DTD SVG 1.1//EN" "http://www.w3.org/Graphics/SVG/1.1/DTD/svg11.dtd">
<svg version="1.1" id="Layer_1" xmlns="http://www.w3.org/2000/svg" xmlns:xlink="http://www.w3.org/1999/xlink" x="0px" y="0px"
	 width="1920px" height="1200px" viewBox="0 0 1920 1200" enable-background="new 0 0 1920 1200" xml:space="preserve">
<g transform="translate(-74.000000, -13.000000)">
	<g>
		<defs>
			<polygon id="SVGID_1_" points="-170.093,26.862 -170.093,26.862 -170.093,26.862 			"/>
		</defs>
		<clipPath id="SVGID_2_">
			<use xlink:href="#SVGID_1_"  overflow="visible"/>
		</clipPath>
		<g transform="matrix(1.000000, 0.000000, 0.000000, 1.000000, 0.000000, 0.000000)" clip-path="url(#SVGID_2_)">
			<rect x="177.844" y="87.987" fill="#FFFFFF" width="1692.666" height="1090.83"/>
		</g>
	</g>
	<g>
		<defs>
			<rect id="SVGID_3_" x="220.161" y="87.987" width="1645.649" height="1020.302"/>
		</defs>
		<clipPath id="SVGID_4_">
			<use xlink:href="#SVGID_3_"  overflow="visible"/>
		</clipPath>
		<g transform="matrix(1.000000, 0.000000, 0.000000, 1.000000, 0.000000, 0.000000)" clip-path="url(#SVGID_4_)">
			<polyline fill="none" stroke="#3F3D99" stroke-width="8" stroke-miterlimit="10" points="253.073,127.564 260.824,127.564 
				268.575,127.564 270.51,127.564 272.448,127.564 272.933,127.564 273.419,127.564 273.901,127.564 274.385,127.564 
				274.87,127.564 275.354,127.564 275.839,127.564 276.323,127.564 276.808,127.564 277.292,127.564 277.776,127.564 
				278.261,127.564 278.745,127.564 279.229,127.564 279.714,127.564 280.198,127.566 280.683,127.566 281.167,127.566 
				281.652,127.566 282.136,127.569 282.621,127.569 283.105,127.571 283.59,127.574 284.074,127.576 284.6,127.578 
				285.125,127.581 285.649,127.585 286.175,127.59 286.7,127.594 287.226,127.601 287.75,127.608 288.275,127.615 288.801,127.626 
				289.325,127.635 289.851,127.649 290.375,127.663 290.899,127.677 291.425,127.695 291.951,127.716 292.477,127.737 
				293.002,127.762 293.526,127.79 294.052,127.819 294.577,127.851 295.101,127.888 295.626,127.929 296.152,127.973 
				296.678,128.021 297.204,128.072 297.728,128.129 298.253,128.189 298.779,128.255 299.302,128.327 299.828,128.404 
				300.877,128.574 301.403,128.669 301.931,128.772 302.452,128.88 302.98,128.995 303.505,129.119 304.027,129.249 
				305.081,129.534 305.602,129.688 306.13,129.854 307.177,130.208 307.705,130.399 308.23,130.602 309.279,131.036 
				309.805,131.27 310.331,131.514 311.381,132.034 311.909,132.312 312.43,132.601 313.484,133.217 314.004,133.544 
				314.53,133.883 315.58,134.601 317.683,136.199 318.169,136.603 318.666,137.021 319.643,137.893 321.604,139.792 
				322.097,140.299 322.586,140.82 323.569,141.902 325.529,144.229 326.019,144.845 326.508,145.477 327.491,146.778 
				329.451,149.552 333.373,155.777 333.866,156.618 334.354,157.475 335.333,159.229 337.298,162.903 341.219,170.921 
				341.708,171.982 342.198,173.059 343.18,175.251 345.141,179.79 349.062,189.474 349.546,190.713 350.026,191.964 
				350.986,194.501 352.907,199.704 356.753,210.606 364.446,234.191 379.831,286.681 413.205,409.77 444.35,518.381 444.875,520.1 
				445.404,521.817 446.455,525.24 448.567,532.024 452.79,545.377 461.224,571.192 478.103,619.206 478.62,620.603 479.139,622 
				480.172,624.769 482.247,630.262 486.389,641.032 494.672,661.737 511.239,699.961 511.721,701.014 512.208,702.062 
				513.17,704.149 515.103,708.287 518.967,716.401 526.696,732.027 542.152,760.945 542.674,761.87 543.197,762.796 
				544.244,764.639 546.342,768.279 550.532,775.416 558.909,789.101 575.667,814.287 576.156,814.983 576.645,815.674 
				577.623,817.052 579.579,819.778 583.491,825.123 591.315,835.425 606.963,854.524 607.444,855.079 607.916,855.636 
				608.876,856.734 610.795,858.92 614.632,863.213 622.299,871.487 637.638,886.902 638.155,887.4 638.676,887.894 
				639.716,888.881 641.798,890.837 645.956,894.675 654.278,902.066 670.923,915.785 671.407,916.167 671.892,916.541 
				672.86,917.3 674.801,918.796 678.685,921.743 686.447,927.437 701.979,938.09 702.504,938.439 703.028,938.783 704.08,939.462 
				706.187,940.822 710.395,943.489 718.812,948.642 735.638,958.261 736.157,958.542 736.673,958.825 737.708,959.386 
				739.77,960.494 743.905,962.679 752.165,966.905 768.688,974.827 799.508,987.95 832.939,1000.118 864.14,1009.883 
				897.95,1019.033 931.141,1026.818 962.107,1033.185 995.684,1039.26 1027.03,1044.276 1057.764,1048.663 1091.098,1052.916 
				1122.211,1056.469 1155.933,1059.934 1189.034,1062.987 1219.909,1065.571 1253.396,1068.116 1284.655,1070.274 
				1315.293,1072.221 1348.544,1074.149 1379.565,1075.803 1413.193,1077.453 1444.598,1078.874 1475.385,1080.162 
				1508.778,1081.455 1539.945,1082.576 1573.719,1083.703 1606.878,1084.729 1637.811,1085.622 1671.35,1086.523 
				1702.662,1087.313 1733.363,1088.042 1766.666,1088.781 1797.745,1089.431 1798.286,1089.439 1798.827,1089.453 
				1799.91,1089.471 1802.082,1089.518 1806.416,1089.603 1815.089,1089.772 1815.63,1089.786 1816.171,1089.795 1817.257,1089.813 
				1819.424,1089.857 1823.76,1089.942 1824.305,1089.951 1824.846,1089.965 1825.932,1089.983 1828.101,1090.027 1828.64,1090.036 
				1829.181,1090.047 1830.266,1090.068 1830.809,1090.078 1831.35,1090.088 1831.895,1090.097 1832.434,1090.105 			"/>
			
				<polyline fill="none" stroke="#993D71" stroke-width="8" stroke-linecap="round" stroke-linejoin="round" stroke-miterlimit="10" points="
				253.073,127.564 253.558,129.958 254.042,132.344 255.011,137.094 256.948,146.496 260.824,164.924 268.575,200.333 
				284.074,265.808 284.6,267.91 285.125,270.004 286.175,274.171 288.275,282.42 292.477,298.578 300.877,329.604 317.683,386.875 
				318.169,388.46 318.666,390.035 319.643,393.176 321.604,399.396 325.529,411.62 333.373,435.198 349.062,479.131 
				349.546,480.415 350.026,481.693 350.986,484.239 352.907,489.29 356.753,499.22 364.446,518.422 379.831,554.376 
				380.352,555.543 380.875,556.706 381.913,559.02 384.002,563.604 388.171,572.61 396.517,590.022 413.205,622.539 
				444.35,676.037 478.103,725.149 511.239,766.077 542.152,798.93 575.667,829.741 606.963,854.737 637.638,876.261 670.923,896.8 
				701.979,913.699 735.638,929.924 768.688,944.024 799.508,955.778 832.939,967.2 864.14,976.779 897.95,986.125 931.141,994.39 
				962.107,1001.389 995.684,1008.28 1027.03,1014.139 1057.764,1019.405 1091.098,1024.642 1122.211,1029.124 1155.933,1033.584 
				1189.034,1037.609 1219.909,1041.081 1253.396,1044.558 1284.655,1047.563 1315.293,1050.311 1348.544,1053.079 
				1379.565,1055.481 1413.193,1057.912 1444.598,1060.027 1475.385,1061.97 1508.778,1063.944 1539.945,1065.676 1573.719,1067.43 
				1606.878,1069.041 1637.811,1070.462 1671.35,1071.91 1702.662,1073.185 1733.363,1074.365 1766.666,1075.574 1797.745,1076.64 
				1798.286,1076.659 1798.827,1076.678 1799.91,1076.717 1802.082,1076.785 1806.416,1076.927 1815.089,1077.215 1815.63,1077.233 
				1816.171,1077.246 1817.257,1077.285 1819.424,1077.354 1823.76,1077.492 1824.305,1077.511 1824.846,1077.529 
				1825.932,1077.562 1828.101,1077.633 1828.64,1077.646 1829.181,1077.664 1830.266,1077.699 1830.809,1077.717 1831.35,1077.735 
				1831.895,1077.749 1832.434,1077.767 			"/>
		</g>
	</g>
	<g>
		<defs>
			<rect id="SVGID_5_" x="177.844" y="87.987" width="1692.666" height="1090.83"/>
		</defs>
		<clipPath id="SVGID_6_">
			<use xlink:href="#SVGID_5_"  overflow="visible"/>
		</clipPath>
		<g transform="matrix(1.000000, 0.000000, 0.000000, 1.000000, 0.000000, 0.000000)" clip-path="url(#SVGID_6_)">
			<line fill="none" stroke="#000000" stroke-width="0.9404" x1="253.073" y1="1105.228" x2="253.073" y2="1086.421"/>
		</g>
	</g>
	<g>
		<defs>
			<rect id="SVGID_7_" x="234.266" y="1112.991" width="37.615" height="65.825"/>
		</defs>
		<clipPath id="SVGID_8_">
			<use xlink:href="#SVGID_7_"  overflow="visible"/>
		</clipPath>
		<g transform="matrix(1.000000, 0.000000, 0.000000, 1.000000, 87.500000, 232.348831)" clip-path="url(#SVGID_8_)">
			<text transform="matrix(1 0 0 1 153.8193 933.9988)" font-family="'TimesNewRomanPSMT'" font-size="47.0185">0</text>
		</g>
	</g>
	<g>
		<defs>
			<rect id="SVGID_9_" x="177.844" y="87.987" width="1692.666" height="1090.83"/>
		</defs>
		<clipPath id="SVGID_10_">
			<use xlink:href="#SVGID_9_"  overflow="visible"/>
		</clipPath>
		<g transform="matrix(1.000000, 0.000000, 0.000000, 1.000000, 0.000000, 0.000000)" clip-path="url(#SVGID_10_)">
			<line fill="none" stroke="#000000" stroke-width="0.9404" x1="332.041" y1="1105.228" x2="332.041" y2="1093.944"/>
		</g>
	</g>
	<g>
		<defs>
			<rect id="SVGID_11_" x="177.844" y="87.987" width="1692.666" height="1090.83"/>
		</defs>
		<clipPath id="SVGID_12_">
			<use xlink:href="#SVGID_11_"  overflow="visible"/>
		</clipPath>
		<g transform="matrix(1.000000, 0.000000, 0.000000, 1.000000, 0.000000, 0.000000)" clip-path="url(#SVGID_12_)">
			<line fill="none" stroke="#000000" stroke-width="0.9404" x1="411.008" y1="1105.228" x2="411.008" y2="1093.944"/>
		</g>
	</g>
	<g>
		<defs>
			<rect id="SVGID_13_" x="177.844" y="87.987" width="1692.666" height="1090.83"/>
		</defs>
		<clipPath id="SVGID_14_">
			<use xlink:href="#SVGID_13_"  overflow="visible"/>
		</clipPath>
		<g transform="matrix(1.000000, 0.000000, 0.000000, 1.000000, 0.000000, 0.000000)" clip-path="url(#SVGID_14_)">
			<line fill="none" stroke="#000000" stroke-width="0.9404" x1="489.975" y1="1105.228" x2="489.975" y2="1093.944"/>
		</g>
	</g>
	<g>
		<defs>
			<rect id="SVGID_15_" x="177.844" y="87.987" width="1692.666" height="1090.83"/>
		</defs>
		<clipPath id="SVGID_16_">
			<use xlink:href="#SVGID_15_"  overflow="visible"/>
		</clipPath>
		<g transform="matrix(1.000000, 0.000000, 0.000000, 1.000000, 0.000000, 0.000000)" clip-path="url(#SVGID_16_)">
			<line fill="none" stroke="#000000" stroke-width="0.9404" x1="568.944" y1="1105.228" x2="568.944" y2="1093.944"/>
		</g>
	</g>
	<g>
		<defs>
			<rect id="SVGID_17_" x="177.844" y="87.987" width="1692.666" height="1090.83"/>
		</defs>
		<clipPath id="SVGID_18_">
			<use xlink:href="#SVGID_17_"  overflow="visible"/>
		</clipPath>
		<g transform="matrix(1.000000, 0.000000, 0.000000, 1.000000, 0.000000, 0.000000)" clip-path="url(#SVGID_18_)">
			<line fill="none" stroke="#000000" stroke-width="0.9404" x1="647.917" y1="1105.228" x2="647.917" y2="1086.421"/>
		</g>
	</g>
	<g>
		<defs>
			<rect id="SVGID_19_" x="629.221" y="1112.991" width="37.615" height="65.825"/>
		</defs>
		<clipPath id="SVGID_20_">
			<use xlink:href="#SVGID_19_"  overflow="visible"/>
		</clipPath>
		<g transform="matrix(1.000000, 0.000000, 0.000000, 1.000000, 171.475510, 232.348831)" clip-path="url(#SVGID_20_)">
			<text transform="matrix(1 0 0 1 464.6832 933.9988)" font-family="'TimesNewRomanPSMT'" font-size="47.0185">1</text>
		</g>
	</g>
	<g>
		<defs>
			<rect id="SVGID_21_" x="177.844" y="87.987" width="1692.666" height="1090.83"/>
		</defs>
		<clipPath id="SVGID_22_">
			<use xlink:href="#SVGID_21_"  overflow="visible"/>
		</clipPath>
		<g transform="matrix(1.000000, 0.000000, 0.000000, 1.000000, 0.000000, 0.000000)" clip-path="url(#SVGID_22_)">
			<line fill="none" stroke="#000000" stroke-width="0.9404" x1="726.884" y1="1105.228" x2="726.884" y2="1093.944"/>
		</g>
	</g>
	<g>
		<defs>
			<rect id="SVGID_23_" x="177.844" y="87.987" width="1692.666" height="1090.83"/>
		</defs>
		<clipPath id="SVGID_24_">
			<use xlink:href="#SVGID_23_"  overflow="visible"/>
		</clipPath>
		<g transform="matrix(1.000000, 0.000000, 0.000000, 1.000000, 0.000000, 0.000000)" clip-path="url(#SVGID_24_)">
			<line fill="none" stroke="#000000" stroke-width="0.9404" x1="805.851" y1="1105.228" x2="805.851" y2="1093.944"/>
		</g>
	</g>
	<g>
		<defs>
			<rect id="SVGID_25_" x="177.844" y="87.987" width="1692.666" height="1090.83"/>
		</defs>
		<clipPath id="SVGID_26_">
			<use xlink:href="#SVGID_25_"  overflow="visible"/>
		</clipPath>
		<g transform="matrix(1.000000, 0.000000, 0.000000, 1.000000, 0.000000, 0.000000)" clip-path="url(#SVGID_26_)">
			<line fill="none" stroke="#000000" stroke-width="0.9404" x1="884.817" y1="1105.228" x2="884.817" y2="1093.944"/>
		</g>
	</g>
	<g>
		<defs>
			<rect id="SVGID_27_" x="177.844" y="87.987" width="1692.666" height="1090.83"/>
		</defs>
		<clipPath id="SVGID_28_">
			<use xlink:href="#SVGID_27_"  overflow="visible"/>
		</clipPath>
		<g transform="matrix(1.000000, 0.000000, 0.000000, 1.000000, 0.000000, 0.000000)" clip-path="url(#SVGID_28_)">
			<line fill="none" stroke="#000000" stroke-width="0.9404" x1="963.788" y1="1105.228" x2="963.788" y2="1093.944"/>
		</g>
	</g>
	<g>
		<defs>
			<rect id="SVGID_29_" x="177.844" y="87.987" width="1692.666" height="1090.83"/>
		</defs>
		<clipPath id="SVGID_30_">
			<use xlink:href="#SVGID_29_"  overflow="visible"/>
		</clipPath>
		<g transform="matrix(1.000000, 0.000000, 0.000000, 1.000000, 0.000000, 0.000000)" clip-path="url(#SVGID_30_)">
			<line fill="none" stroke="#000000" stroke-width="0.9404" x1="1042.754" y1="1105.228" x2="1042.754" y2="1086.421"/>
		</g>
	</g>
	<g>
		<defs>
			<rect id="SVGID_31_" x="1024.177" y="1112.991" width="37.615" height="65.825"/>
		</defs>
		<clipPath id="SVGID_32_">
			<use xlink:href="#SVGID_31_"  overflow="visible"/>
		</clipPath>
		<g transform="matrix(1.000000, 0.000000, 0.000000, 1.000000, 255.451020, 232.348831)" clip-path="url(#SVGID_32_)">
			<text transform="matrix(1 0 0 1 775.548 933.9988)" font-family="'TimesNewRomanPSMT'" font-size="47.0185">2</text>
		</g>
	</g>
	<g>
		<defs>
			<rect id="SVGID_33_" x="177.844" y="87.987" width="1692.666" height="1090.83"/>
		</defs>
		<clipPath id="SVGID_34_">
			<use xlink:href="#SVGID_33_"  overflow="visible"/>
		</clipPath>
		<g transform="matrix(1.000000, 0.000000, 0.000000, 1.000000, 0.000000, 0.000000)" clip-path="url(#SVGID_34_)">
			<line fill="none" stroke="#000000" stroke-width="0.9404" x1="1121.722" y1="1105.228" x2="1121.722" y2="1093.944"/>
		</g>
	</g>
	<g>
		<defs>
			<rect id="SVGID_35_" x="177.844" y="87.987" width="1692.666" height="1090.83"/>
		</defs>
		<clipPath id="SVGID_36_">
			<use xlink:href="#SVGID_35_"  overflow="visible"/>
		</clipPath>
		<g transform="matrix(1.000000, 0.000000, 0.000000, 1.000000, 0.000000, 0.000000)" clip-path="url(#SVGID_36_)">
			<line fill="none" stroke="#000000" stroke-width="0.9404" x1="1200.69" y1="1105.228" x2="1200.69" y2="1093.944"/>
		</g>
	</g>
	<g>
		<defs>
			<rect id="SVGID_37_" x="177.844" y="87.987" width="1692.666" height="1090.83"/>
		</defs>
		<clipPath id="SVGID_38_">
			<use xlink:href="#SVGID_37_"  overflow="visible"/>
		</clipPath>
		<g transform="matrix(1.000000, 0.000000, 0.000000, 1.000000, 0.000000, 0.000000)" clip-path="url(#SVGID_38_)">
			<line fill="none" stroke="#000000" stroke-width="0.9404" x1="1279.656" y1="1105.228" x2="1279.656" y2="1093.944"/>
		</g>
	</g>
	<g>
		<defs>
			<rect id="SVGID_39_" x="177.844" y="87.987" width="1692.666" height="1090.83"/>
		</defs>
		<clipPath id="SVGID_40_">
			<use xlink:href="#SVGID_39_"  overflow="visible"/>
		</clipPath>
		<g transform="matrix(1.000000, 0.000000, 0.000000, 1.000000, 0.000000, 0.000000)" clip-path="url(#SVGID_40_)">
			<line fill="none" stroke="#000000" stroke-width="0.9404" x1="1358.624" y1="1105.228" x2="1358.624" y2="1093.944"/>
		</g>
	</g>
	<g>
		<defs>
			<rect id="SVGID_41_" x="177.844" y="87.987" width="1692.666" height="1090.83"/>
		</defs>
		<clipPath id="SVGID_42_">
			<use xlink:href="#SVGID_41_"  overflow="visible"/>
		</clipPath>
		<g transform="matrix(1.000000, 0.000000, 0.000000, 1.000000, 0.000000, 0.000000)" clip-path="url(#SVGID_42_)">
			<line fill="none" stroke="#000000" stroke-width="0.9404" x1="1437.597" y1="1105.228" x2="1437.597" y2="1086.421"/>
		</g>
	</g>
	<g>
		<defs>
			<rect id="SVGID_43_" x="1419.133" y="1112.991" width="37.615" height="65.825"/>
		</defs>
		<clipPath id="SVGID_44_">
			<use xlink:href="#SVGID_43_"  overflow="visible"/>
		</clipPath>
		<g transform="matrix(1.000000, 0.000000, 0.000000, 1.000000, 339.426531, 232.348831)" clip-path="url(#SVGID_44_)">
			<text transform="matrix(1 0 0 1 1086.4124 933.9988)" font-family="'TimesNewRomanPSMT'" font-size="47.0185">3</text>
		</g>
	</g>
	<g>
		<defs>
			<rect id="SVGID_45_" x="177.844" y="87.987" width="1692.666" height="1090.83"/>
		</defs>
		<clipPath id="SVGID_46_">
			<use xlink:href="#SVGID_45_"  overflow="visible"/>
		</clipPath>
		<g transform="matrix(1.000000, 0.000000, 0.000000, 1.000000, 0.000000, 0.000000)" clip-path="url(#SVGID_46_)">
			<line fill="none" stroke="#000000" stroke-width="0.9404" x1="1516.564" y1="1105.228" x2="1516.564" y2="1093.944"/>
		</g>
	</g>
	<g>
		<defs>
			<rect id="SVGID_47_" x="177.844" y="87.987" width="1692.666" height="1090.83"/>
		</defs>
		<clipPath id="SVGID_48_">
			<use xlink:href="#SVGID_47_"  overflow="visible"/>
		</clipPath>
		<g transform="matrix(1.000000, 0.000000, 0.000000, 1.000000, 0.000000, 0.000000)" clip-path="url(#SVGID_48_)">
			<line fill="none" stroke="#000000" stroke-width="0.9404" x1="1595.533" y1="1105.228" x2="1595.533" y2="1093.944"/>
		</g>
	</g>
	<g>
		<defs>
			<rect id="SVGID_49_" x="177.844" y="87.987" width="1692.666" height="1090.83"/>
		</defs>
		<clipPath id="SVGID_50_">
			<use xlink:href="#SVGID_49_"  overflow="visible"/>
		</clipPath>
		<g transform="matrix(1.000000, 0.000000, 0.000000, 1.000000, 0.000000, 0.000000)" clip-path="url(#SVGID_50_)">
			<line fill="none" stroke="#000000" stroke-width="0.9404" x1="1674.499" y1="1105.228" x2="1674.499" y2="1093.944"/>
		</g>
	</g>
	<g>
		<defs>
			<rect id="SVGID_51_" x="177.844" y="87.987" width="1692.666" height="1090.83"/>
		</defs>
		<clipPath id="SVGID_52_">
			<use xlink:href="#SVGID_51_"  overflow="visible"/>
		</clipPath>
		<g transform="matrix(1.000000, 0.000000, 0.000000, 1.000000, 0.000000, 0.000000)" clip-path="url(#SVGID_52_)">
			<line fill="none" stroke="#000000" stroke-width="0.9404" x1="1753.467" y1="1105.228" x2="1753.467" y2="1093.944"/>
		</g>
	</g>
	<g>
		<defs>
			<rect id="SVGID_53_" x="177.844" y="87.987" width="1692.666" height="1090.83"/>
		</defs>
		<clipPath id="SVGID_54_">
			<use xlink:href="#SVGID_53_"  overflow="visible"/>
		</clipPath>
		<g transform="matrix(1.000000, 0.000000, 0.000000, 1.000000, 0.000000, 0.000000)" clip-path="url(#SVGID_54_)">
			<line fill="none" stroke="#000000" stroke-width="0.9404" x1="1832.434" y1="1105.228" x2="1832.434" y2="1086.421"/>
		</g>
	</g>
	<g>
		<defs>
			<rect id="SVGID_55_" x="1814.087" y="1112.991" width="37.617" height="65.825"/>
		</defs>
		<clipPath id="SVGID_56_">
			<use xlink:href="#SVGID_55_"  overflow="visible"/>
		</clipPath>
		<g transform="matrix(1.000000, 0.000000, 0.000000, 1.000000, 423.402041, 232.348831)" clip-path="url(#SVGID_56_)">
			<text transform="matrix(1 0 0 1 1397.2756 933.9988)" font-family="'TimesNewRomanPSMT'" font-size="47.0185">4</text>
		</g>
	</g>
	<g>
		<defs>
			<rect id="SVGID_57_" x="177.844" y="87.987" width="1692.666" height="1090.83"/>
		</defs>
		<clipPath id="SVGID_58_">
			<use xlink:href="#SVGID_57_"  overflow="visible"/>
		</clipPath>
		<g transform="matrix(1.000000, 0.000000, 0.000000, 1.000000, 0.000000, 0.000000)" clip-path="url(#SVGID_58_)">
			<line fill="none" stroke="#000000" stroke-width="3" x1="220.169" y1="1105.228" x2="1865.338" y2="1105.228"/>
		</g>
	</g>
	<g>
		<defs>
			<rect id="SVGID_59_" x="177.844" y="87.987" width="1692.666" height="1090.83"/>
		</defs>
		<clipPath id="SVGID_60_">
			<use xlink:href="#SVGID_59_"  overflow="visible"/>
		</clipPath>
		<g transform="matrix(1.000000, 0.000000, 0.000000, 1.000000, 0.000000, 0.000000)" clip-path="url(#SVGID_60_)">
			<line fill="none" stroke="#000000" stroke-width="0.9404" x1="253.073" y1="1105.228" x2="271.881" y2="1105.228"/>
		</g>
	</g>
	<g>
		<defs>
			<rect id="SVGID_61_" x="177.844" y="87.987" width="1692.666" height="1090.83"/>
		</defs>
		<clipPath id="SVGID_62_">
			<use xlink:href="#SVGID_61_"  overflow="visible"/>
		</clipPath>
		<g transform="matrix(1.000000, 0.000000, 0.000000, 1.000000, 0.000000, 0.000000)" clip-path="url(#SVGID_62_)">
			<line fill="none" stroke="#000000" stroke-width="0.9404" x1="253.073" y1="1066.123" x2="264.357" y2="1066.123"/>
		</g>
	</g>
	<g>
		<defs>
			<rect id="SVGID_63_" x="177.844" y="87.987" width="1692.666" height="1090.83"/>
		</defs>
		<clipPath id="SVGID_64_">
			<use xlink:href="#SVGID_63_"  overflow="visible"/>
		</clipPath>
		<g transform="matrix(1.000000, 0.000000, 0.000000, 1.000000, 0.000000, 0.000000)" clip-path="url(#SVGID_64_)">
			<line fill="none" stroke="#000000" stroke-width="0.9404" x1="253.073" y1="1027.011" x2="264.357" y2="1027.011"/>
		</g>
	</g>
	<g>
		<defs>
			<rect id="SVGID_65_" x="177.844" y="87.987" width="1692.666" height="1090.83"/>
		</defs>
		<clipPath id="SVGID_66_">
			<use xlink:href="#SVGID_65_"  overflow="visible"/>
		</clipPath>
		<g transform="matrix(1.000000, 0.000000, 0.000000, 1.000000, 0.000000, 0.000000)" clip-path="url(#SVGID_66_)">
			<line fill="none" stroke="#000000" stroke-width="0.9404" x1="253.073" y1="987.907" x2="264.357" y2="987.907"/>
		</g>
	</g>
	<g>
		<defs>
			<rect id="SVGID_67_" x="177.844" y="87.987" width="1692.666" height="1090.83"/>
		</defs>
		<clipPath id="SVGID_68_">
			<use xlink:href="#SVGID_67_"  overflow="visible"/>
		</clipPath>
		<g transform="matrix(1.000000, 0.000000, 0.000000, 1.000000, 0.000000, 0.000000)" clip-path="url(#SVGID_68_)">
			<line fill="none" stroke="#000000" stroke-width="0.9404" x1="253.073" y1="948.803" x2="264.357" y2="948.803"/>
		</g>
	</g>
	<g>
		<defs>
			<rect id="SVGID_69_" x="177.844" y="87.987" width="1692.666" height="1090.83"/>
		</defs>
		<clipPath id="SVGID_70_">
			<use xlink:href="#SVGID_69_"  overflow="visible"/>
		</clipPath>
		<g transform="matrix(1.000000, 0.000000, 0.000000, 1.000000, 0.000000, 0.000000)" clip-path="url(#SVGID_70_)">
			<line fill="none" stroke="#000000" stroke-width="0.9404" x1="253.073" y1="909.697" x2="271.881" y2="909.697"/>
		</g>
	</g>
	<g>
		<defs>
			<rect id="SVGID_71_" x="177.844" y="873.196" width="65.826" height="70.527"/>
		</defs>
		<clipPath id="SVGID_72_">
			<use xlink:href="#SVGID_71_"  overflow="visible"/>
		</clipPath>
		<g transform="matrix(1.000000, 0.000000, 0.000000, 1.000000, 74.000000, 181.762518)" clip-path="url(#SVGID_72_)">
			<text transform="matrix(1 0 0 1 103.8442 746.7385)" font-family="'TimesNewRomanPSMT'" font-size="47.0185">0.6</text>
		</g>
	</g>
	<g>
		<defs>
			<rect id="SVGID_73_" x="177.844" y="87.987" width="1692.666" height="1090.83"/>
		</defs>
		<clipPath id="SVGID_74_">
			<use xlink:href="#SVGID_73_"  overflow="visible"/>
		</clipPath>
		<g transform="matrix(1.000000, 0.000000, 0.000000, 1.000000, 0.000000, 0.000000)" clip-path="url(#SVGID_74_)">
			<line fill="none" stroke="#000000" stroke-width="0.9404" x1="253.073" y1="870.585" x2="264.357" y2="870.585"/>
		</g>
	</g>
	<g>
		<defs>
			<rect id="SVGID_75_" x="177.844" y="87.987" width="1692.666" height="1090.83"/>
		</defs>
		<clipPath id="SVGID_76_">
			<use xlink:href="#SVGID_75_"  overflow="visible"/>
		</clipPath>
		<g transform="matrix(1.000000, 0.000000, 0.000000, 1.000000, 0.000000, 0.000000)" clip-path="url(#SVGID_76_)">
			<line fill="none" stroke="#000000" stroke-width="0.9404" x1="253.073" y1="831.48" x2="264.357" y2="831.48"/>
		</g>
	</g>
	<g>
		<defs>
			<rect id="SVGID_77_" x="177.844" y="87.987" width="1692.666" height="1090.83"/>
		</defs>
		<clipPath id="SVGID_78_">
			<use xlink:href="#SVGID_77_"  overflow="visible"/>
		</clipPath>
		<g transform="matrix(1.000000, 0.000000, 0.000000, 1.000000, 0.000000, 0.000000)" clip-path="url(#SVGID_78_)">
			<line fill="none" stroke="#000000" stroke-width="0.9404" x1="253.073" y1="792.376" x2="264.357" y2="792.376"/>
		</g>
	</g>
	<g>
		<defs>
			<rect id="SVGID_79_" x="177.844" y="87.987" width="1692.666" height="1090.83"/>
		</defs>
		<clipPath id="SVGID_80_">
			<use xlink:href="#SVGID_79_"  overflow="visible"/>
		</clipPath>
		<g transform="matrix(1.000000, 0.000000, 0.000000, 1.000000, 0.000000, 0.000000)" clip-path="url(#SVGID_80_)">
			<line fill="none" stroke="#000000" stroke-width="0.9404" x1="253.073" y1="753.267" x2="264.357" y2="753.267"/>
		</g>
	</g>
	<g>
		<defs>
			<rect id="SVGID_81_" x="177.844" y="87.987" width="1692.666" height="1090.83"/>
		</defs>
		<clipPath id="SVGID_82_">
			<use xlink:href="#SVGID_81_"  overflow="visible"/>
		</clipPath>
		<g transform="matrix(1.000000, 0.000000, 0.000000, 1.000000, 0.000000, 0.000000)" clip-path="url(#SVGID_82_)">
			<line fill="none" stroke="#000000" stroke-width="0.9404" x1="253.073" y1="714.16" x2="271.881" y2="714.16"/>
		</g>
	</g>
	<g>
		<defs>
			<rect id="SVGID_83_" x="177.844" y="680.42" width="65.826" height="70.527"/>
		</defs>
		<clipPath id="SVGID_84_">
			<use xlink:href="#SVGID_83_"  overflow="visible"/>
		</clipPath>
		<g transform="matrix(1.000000, 0.000000, 0.000000, 1.000000, 74.000000, 140.176204)" clip-path="url(#SVGID_84_)">
			<text transform="matrix(1 0 0 1 103.8442 592.7886)" font-family="'TimesNewRomanPSMT'" font-size="47.0185">0.7</text>
		</g>
	</g>
	<g>
		<defs>
			<rect id="SVGID_85_" x="177.844" y="87.987" width="1692.666" height="1090.83"/>
		</defs>
		<clipPath id="SVGID_86_">
			<use xlink:href="#SVGID_85_"  overflow="visible"/>
		</clipPath>
		<g transform="matrix(1.000000, 0.000000, 0.000000, 1.000000, 0.000000, 0.000000)" clip-path="url(#SVGID_86_)">
			<line fill="none" stroke="#000000" stroke-width="0.9404" x1="253.073" y1="675.055" x2="264.357" y2="675.055"/>
		</g>
	</g>
	<g>
		<defs>
			<rect id="SVGID_87_" x="177.844" y="87.987" width="1692.666" height="1090.83"/>
		</defs>
		<clipPath id="SVGID_88_">
			<use xlink:href="#SVGID_87_"  overflow="visible"/>
		</clipPath>
		<g transform="matrix(1.000000, 0.000000, 0.000000, 1.000000, 0.000000, 0.000000)" clip-path="url(#SVGID_88_)">
			<line fill="none" stroke="#000000" stroke-width="0.9404" x1="253.073" y1="635.95" x2="264.357" y2="635.95"/>
		</g>
	</g>
	<g>
		<defs>
			<rect id="SVGID_89_" x="177.844" y="87.987" width="1692.666" height="1090.83"/>
		</defs>
		<clipPath id="SVGID_90_">
			<use xlink:href="#SVGID_89_"  overflow="visible"/>
		</clipPath>
		<g transform="matrix(1.000000, 0.000000, 0.000000, 1.000000, 0.000000, 0.000000)" clip-path="url(#SVGID_90_)">
			<line fill="none" stroke="#000000" stroke-width="0.9404" x1="253.073" y1="596.84" x2="264.357" y2="596.84"/>
		</g>
	</g>
	<g>
		<defs>
			<rect id="SVGID_91_" x="177.844" y="87.987" width="1692.666" height="1090.83"/>
		</defs>
		<clipPath id="SVGID_92_">
			<use xlink:href="#SVGID_91_"  overflow="visible"/>
		</clipPath>
		<g transform="matrix(1.000000, 0.000000, 0.000000, 1.000000, 0.000000, 0.000000)" clip-path="url(#SVGID_92_)">
			<line fill="none" stroke="#000000" stroke-width="0.9404" x1="253.073" y1="557.735" x2="264.357" y2="557.735"/>
		</g>
	</g>
	<g>
		<defs>
			<rect id="SVGID_93_" x="177.844" y="87.987" width="1692.666" height="1090.83"/>
		</defs>
		<clipPath id="SVGID_94_">
			<use xlink:href="#SVGID_93_"  overflow="visible"/>
		</clipPath>
		<g transform="matrix(1.000000, 0.000000, 0.000000, 1.000000, 0.000000, 0.000000)" clip-path="url(#SVGID_94_)">
			<line fill="none" stroke="#000000" stroke-width="0.9404" x1="253.073" y1="518.628" x2="271.881" y2="518.628"/>
		</g>
	</g>
	<g>
		<defs>
			<rect id="SVGID_95_" x="177.844" y="482.942" width="65.826" height="70.528"/>
		</defs>
		<clipPath id="SVGID_96_">
			<use xlink:href="#SVGID_95_"  overflow="visible"/>
		</clipPath>
		<g transform="matrix(1.000000, 0.000000, 0.000000, 1.000000, 74.000000, 98.589890)" clip-path="url(#SVGID_96_)">
			<text transform="matrix(1 0 0 1 103.8442 438.8428)" font-family="'TimesNewRomanPSMT'" font-size="47.0185">0.8</text>
		</g>
	</g>
	<g>
		<defs>
			<rect id="SVGID_97_" x="177.844" y="87.987" width="1692.666" height="1090.83"/>
		</defs>
		<clipPath id="SVGID_98_">
			<use xlink:href="#SVGID_97_"  overflow="visible"/>
		</clipPath>
		<g transform="matrix(1.000000, 0.000000, 0.000000, 1.000000, 0.000000, 0.000000)" clip-path="url(#SVGID_98_)">
			<line fill="none" stroke="#000000" stroke-width="0.9404" x1="253.073" y1="479.521" x2="264.357" y2="479.521"/>
		</g>
	</g>
	<g>
		<defs>
			<rect id="SVGID_99_" x="177.844" y="87.987" width="1692.666" height="1090.83"/>
		</defs>
		<clipPath id="SVGID_100_">
			<use xlink:href="#SVGID_99_"  overflow="visible"/>
		</clipPath>
		<g transform="matrix(1.000000, 0.000000, 0.000000, 1.000000, 0.000000, 0.000000)" clip-path="url(#SVGID_100_)">
			<line fill="none" stroke="#000000" stroke-width="0.9404" x1="253.073" y1="440.417" x2="264.357" y2="440.417"/>
		</g>
	</g>
	<g>
		<defs>
			<rect id="SVGID_101_" x="177.844" y="87.987" width="1692.666" height="1090.83"/>
		</defs>
		<clipPath id="SVGID_102_">
			<use xlink:href="#SVGID_101_"  overflow="visible"/>
		</clipPath>
		<g transform="matrix(1.000000, 0.000000, 0.000000, 1.000000, 0.000000, 0.000000)" clip-path="url(#SVGID_102_)">
			<line fill="none" stroke="#000000" stroke-width="0.9404" x1="253.073" y1="401.31" x2="264.357" y2="401.31"/>
		</g>
	</g>
	<g>
		<defs>
			<rect id="SVGID_103_" x="177.844" y="87.987" width="1692.666" height="1090.83"/>
		</defs>
		<clipPath id="SVGID_104_">
			<use xlink:href="#SVGID_103_"  overflow="visible"/>
		</clipPath>
		<g transform="matrix(1.000000, 0.000000, 0.000000, 1.000000, 0.000000, 0.000000)" clip-path="url(#SVGID_104_)">
			<line fill="none" stroke="#000000" stroke-width="0.9404" x1="253.073" y1="362.203" x2="264.357" y2="362.203"/>
		</g>
	</g>
	<g>
		<defs>
			<rect id="SVGID_105_" x="177.844" y="87.987" width="1692.666" height="1090.83"/>
		</defs>
		<clipPath id="SVGID_106_">
			<use xlink:href="#SVGID_105_"  overflow="visible"/>
		</clipPath>
		<g transform="matrix(1.000000, 0.000000, 0.000000, 1.000000, 0.000000, 0.000000)" clip-path="url(#SVGID_106_)">
			<line fill="none" stroke="#000000" stroke-width="0.9404" x1="253.073" y1="323.095" x2="271.881" y2="323.095"/>
		</g>
	</g>
	<g>
		<defs>
			<rect id="SVGID_107_" x="177.844" y="290.166" width="65.826" height="70.528"/>
		</defs>
		<clipPath id="SVGID_108_">
			<use xlink:href="#SVGID_107_"  overflow="visible"/>
		</clipPath>
		<g transform="matrix(1.000000, 0.000000, 0.000000, 1.000000, 74.000000, 57.003576)" clip-path="url(#SVGID_108_)">
			<text transform="matrix(1 0 0 1 103.8442 284.8983)" font-family="'TimesNewRomanPSMT'" font-size="47.0185">0.9</text>
		</g>
	</g>
	<g>
		<defs>
			<rect id="SVGID_109_" x="177.844" y="87.987" width="1692.666" height="1090.83"/>
		</defs>
		<clipPath id="SVGID_110_">
			<use xlink:href="#SVGID_109_"  overflow="visible"/>
		</clipPath>
		<g transform="matrix(1.000000, 0.000000, 0.000000, 1.000000, 0.000000, 0.000000)" clip-path="url(#SVGID_110_)">
			<line fill="none" stroke="#000000" stroke-width="0.9404" x1="253.073" y1="283.99" x2="264.357" y2="283.99"/>
		</g>
	</g>
	<g>
		<defs>
			<rect id="SVGID_111_" x="177.844" y="87.987" width="1692.666" height="1090.83"/>
		</defs>
		<clipPath id="SVGID_112_">
			<use xlink:href="#SVGID_111_"  overflow="visible"/>
		</clipPath>
		<g transform="matrix(1.000000, 0.000000, 0.000000, 1.000000, 0.000000, 0.000000)" clip-path="url(#SVGID_112_)">
			<line fill="none" stroke="#000000" stroke-width="0.9404" x1="253.073" y1="244.883" x2="264.357" y2="244.883"/>
		</g>
	</g>
	<g>
		<defs>
			<rect id="SVGID_113_" x="177.844" y="87.987" width="1692.666" height="1090.83"/>
		</defs>
		<clipPath id="SVGID_114_">
			<use xlink:href="#SVGID_113_"  overflow="visible"/>
		</clipPath>
		<g transform="matrix(1.000000, 0.000000, 0.000000, 1.000000, 0.000000, 0.000000)" clip-path="url(#SVGID_114_)">
			<line fill="none" stroke="#000000" stroke-width="0.9404" x1="253.073" y1="205.776" x2="264.357" y2="205.776"/>
		</g>
	</g>
	<g>
		<defs>
			<rect id="SVGID_115_" x="177.844" y="87.987" width="1692.666" height="1090.83"/>
		</defs>
		<clipPath id="SVGID_116_">
			<use xlink:href="#SVGID_115_"  overflow="visible"/>
		</clipPath>
		<g transform="matrix(1.000000, 0.000000, 0.000000, 1.000000, 0.000000, 0.000000)" clip-path="url(#SVGID_116_)">
			<line fill="none" stroke="#000000" stroke-width="0.9404" x1="253.073" y1="166.669" x2="264.357" y2="166.669"/>
		</g>
	</g>
	<g>
		<defs>
			<rect id="SVGID_117_" x="177.844" y="87.987" width="1692.666" height="1090.83"/>
		</defs>
		<clipPath id="SVGID_118_">
			<use xlink:href="#SVGID_117_"  overflow="visible"/>
		</clipPath>
		<g transform="matrix(1.000000, 0.000000, 0.000000, 1.000000, 0.000000, 0.000000)" clip-path="url(#SVGID_118_)">
			<line fill="none" stroke="#000000" stroke-width="0.9404" x1="253.073" y1="127.564" x2="271.881" y2="127.564"/>
		</g>
	</g>
	<g>
		<defs>
			<rect id="SVGID_119_" x="177.844" y="92.688" width="65.826" height="70.528"/>
		</defs>
		<clipPath id="SVGID_120_">
			<use xlink:href="#SVGID_119_"  overflow="visible"/>
		</clipPath>
		<g transform="matrix(1.000000, 0.000000, 0.000000, 1.000000, 74.000000, 15.417263)" clip-path="url(#SVGID_120_)">
			<text transform="matrix(1 0 0 1 103.8442 130.9495)" font-family="'TimesNewRomanPSMT'" font-size="47.0185">1.0</text>
		</g>
	</g>
	<g>
		<defs>
			<rect id="SVGID_121_" x="177.844" y="87.987" width="1692.666" height="1090.83"/>
		</defs>
		<clipPath id="SVGID_122_">
			<use xlink:href="#SVGID_121_"  overflow="visible"/>
		</clipPath>
		<g transform="matrix(1.000000, 0.000000, 0.000000, 1.000000, 0.000000, 0.000000)" clip-path="url(#SVGID_122_)">
			<line fill="none" stroke="#000000" stroke-width="0.9404" x1="253.073" y1="88.458" x2="264.357" y2="88.458"/>
		</g>
	</g>
	<g>
		<defs>
			<rect id="SVGID_123_" x="177.844" y="87.987" width="1692.666" height="1090.83"/>
		</defs>
		<clipPath id="SVGID_124_">
			<use xlink:href="#SVGID_123_"  overflow="visible"/>
		</clipPath>
		<g transform="matrix(1.000000, 0.000000, 0.000000, 1.000000, 0.000000, 0.000000)" clip-path="url(#SVGID_124_)">
			<line fill="none" stroke="#000000" stroke-width="3" x1="253.073" y1="1105.228" x2="253.073" y2="88.458"/>
		</g>
	</g>
</g>
<g>
	
		<text transform="matrix(1 0 0 1 1000.5762 328.356)" fill="#993D71" stroke="#993D71" stroke-width="2.7374" stroke-miterlimit="10" font-family="'LMRoman10-Regular'" font-size="70.1353">1</text>
	
		<text transform="matrix(1 0 0 1 1049.1563 328.356)" fill="#993D71" stroke="#993D71" stroke-width="2.7374" stroke-miterlimit="10" font-family="'LMMathSymbols10-Regular'" font-size="70.1353">−</text>
	
		<text transform="matrix(1 0 0 1 1119.2949 328.356)" fill="#993D71" stroke="#993D71" stroke-width="2.7374" stroke-miterlimit="10" font-family="'LMRoman10-Regular'" font-size="70.1353">2</text>
	
		<text transform="matrix(1 0 0 1 1154.3535 328.356)" fill="#993D71" stroke="#993D71" stroke-width="2.7374" stroke-miterlimit="10" font-family="'LMMathItalic10-Regular'" font-size="70.1353">ω</text>
	
		<text transform="matrix(1 0 0 1 1200.5322 328.356)" fill="#993D71" stroke="#993D71" stroke-width="2.7374" stroke-miterlimit="10" font-family="'LMRoman10-Regular'" font-size="70.1353">B</text>
	
		<text transform="matrix(1 0 0 1 1250.2119 341.0171)" fill="#993D71" stroke="#993D71" stroke-width="2.7374" stroke-miterlimit="10" font-family="'LMRoman7-Regular'" font-size="49.0946">1</text>
	
		<text transform="matrix(1 0 0 1 1278.1631 341.0171)" fill="#993D71" stroke="#993D71" stroke-width="2.7374" stroke-miterlimit="10" font-family="'LMMathItalic7-Regular'" font-size="49.0946">/</text>
	
		<text transform="matrix(1 0 0 1 1306.9004 341.0171)" fill="#993D71" stroke="#993D71" stroke-width="2.7374" stroke-miterlimit="10" font-family="'LMRoman7-Regular'" font-size="49.0946">2</text>
	<text transform="matrix(1 0 0 1 1338.3633 328.356)"><tspan x="0" y="0" fill="#993D71" stroke="#993D71" stroke-width="2.7374" stroke-miterlimit="10" font-family="'LMRoman10-Regular'" font-size="70.1353">(</tspan><tspan x="27.274" y="0" fill="#993D71" stroke="#993D71" stroke-width="2.7374" stroke-miterlimit="10" font-family="'LMRoman10-Regular'" font-size="70.1353" letter-spacing="15">1</tspan><tspan x="77.912" y="0" fill="#993D71" stroke="#993D71" stroke-width="2.7374" stroke-miterlimit="10" font-family="'LMRoman10-Regular'" font-size="70.1353">+</tspan></text>
	<text transform="matrix(1 0 0 1 1486.4277 328.356)"><tspan x="0" y="0" fill="#993D71" stroke="#993D71" stroke-width="2.7374" stroke-miterlimit="10" font-family="'LMMathItalic10-Regular'" font-size="70.1353" letter-spacing="2">ω</tspan><tspan x="46.181" y="0" fill="#993D71" stroke="#993D71" stroke-width="2.7374" stroke-miterlimit="10" font-family="'LMMathItalic10-Regular'" font-size="70.1353">,</tspan></text>
	
		<text transform="matrix(1 0 0 1 1563.7715 328.356)" fill="#993D71" stroke="#993D71" stroke-width="2.7374" stroke-miterlimit="10" font-family="'LMRoman10-Regular'" font-size="70.1353">1</text>
	
		<text transform="matrix(1 0 0 1 1614.4238 328.356)" fill="#993D71" stroke="#993D71" stroke-width="2.7374" stroke-miterlimit="10" font-family="'LMMathSymbols10-Regular'" font-size="70.1353">−</text>
	
		<text transform="matrix(1 0 0 1 1684.5596 328.356)" fill="#993D71" stroke="#993D71" stroke-width="2.7374" stroke-miterlimit="10" font-family="'LMMathItalic10-Regular'" font-size="70.1353">ω</text>
	
		<text transform="matrix(1 0 0 1 1730.7285 328.356)" fill="#993D71" stroke="#993D71" stroke-width="2.7374" stroke-miterlimit="10" font-family="'LMRoman10-Regular'" font-size="70.1353">)</text>
</g>
<text transform="matrix(1 0 0 1 1814.2715 1118.7754)" font-family="'LMMathItalic10-Regular'" font-size="121.9461">ω</text>
<g>
	<text transform="matrix(1 0 0 1 1205.4229 522.4858)"><tspan x="0" y="0" fill="#3F3D99" stroke="#3F3D99" stroke-width="2.7374" stroke-miterlimit="10" font-family="'LMRoman10-Regular'" font-size="77.8721" letter-spacing="17">1</tspan><tspan x="56.224" y="0" fill="#3F3D99" stroke="#3F3D99" stroke-width="2.7374" stroke-miterlimit="10" font-family="'LMRoman10-Regular'" font-size="77.8721">+</tspan></text>
	
		<text transform="matrix(1 0 0 1 1339.5332 522.4858)" fill="#3F3D99" stroke="#3F3D99" stroke-width="2.7374" stroke-miterlimit="10" font-family="'LMMathItalic10-Regular'" font-size="77.8721">e</text>
	
		<text transform="matrix(1 0 0 1 1375.7969 494.228)" fill="#3F3D99" stroke="#3F3D99" stroke-width="2.7374" stroke-miterlimit="10" font-family="'LMRoman7-Regular'" font-size="54.5103">2</text>
	
		<text transform="matrix(1 0 0 1 1406.835 494.228)" fill="#3F3D99" stroke="#3F3D99" stroke-width="2.7374" stroke-miterlimit="10" font-family="'LMMathItalic7-Regular'" font-size="54.5103">/ω</text>
	
		<line fill="#3F3D99" stroke="#3F3D99" stroke-width="2.7374" stroke-miterlimit="10" x1="1152.272" y1="555.695" x2="1536.991" y2="555.695"/>
	
		<text transform="matrix(1 0 0 1 1152.2725 585.5952)" fill="#3F3D99" stroke="#3F3D99" stroke-width="2.7374" stroke-miterlimit="10" font-family="'LMMathExtension10-Regular'" font-size="77.8721"></text>
	<text transform="matrix(1 0 0 1 1187.958 648.6621)"><tspan x="0" y="0" fill="#3F3D99" stroke="#3F3D99" stroke-width="2.7374" stroke-miterlimit="10" font-family="'LMRoman10-Regular'" font-size="77.8721" letter-spacing="17">1</tspan><tspan x="56.224" y="0" fill="#3F3D99" stroke="#3F3D99" stroke-width="2.7374" stroke-miterlimit="10" font-family="'LMRoman10-Regular'" font-size="77.8721">+</tspan></text>
	
		<text transform="matrix(1 0 0 1 1322.0752 648.6621)" fill="#3F3D99" stroke="#3F3D99" stroke-width="2.7374" stroke-miterlimit="10" font-family="'LMMathItalic10-Regular'" font-size="77.8721">e</text>
	
		<text transform="matrix(1 0 0 1 1358.332 626.1641)" fill="#3F3D99" stroke="#3F3D99" stroke-width="2.7374" stroke-miterlimit="10" font-family="'LMRoman7-Regular'" font-size="54.5103">1</text>
	
		<text transform="matrix(1 0 0 1 1389.3691 626.1641)" fill="#3F3D99" stroke="#3F3D99" stroke-width="2.7374" stroke-miterlimit="10" font-family="'LMMathItalic7-Regular'" font-size="54.5103">/ω</text>
	
		<text transform="matrix(1 0 0 1 1466.3584 585.5952)" fill="#3F3D99" stroke="#3F3D99" stroke-width="2.7374" stroke-miterlimit="10" font-family="'LMMathExtension10-Regular'" font-size="77.8721"></text>
	
		<text transform="matrix(1 0 0 1 1502.0439 601.7275)" fill="#3F3D99" stroke="#3F3D99" stroke-width="2.7374" stroke-miterlimit="10" font-family="'LMRoman7-Regular'" font-size="54.5103">2</text>
</g>
<rect x="805.971" y="266.817" fill="#993D71" stroke="#000000" stroke-width="3.6498" stroke-miterlimit="10" width="149.584" height="94.024"/>
<rect x="805.971" y="512.562" fill="#3F3D99" stroke="#000000" stroke-width="3.6498" stroke-miterlimit="10" width="149.584" height="94.024"/>
</svg>
